<svg width="36" height="23" viewBox="0 0 36 23" fill="none" xmlns="http://www.w3.org/2000/svg">
<path d="M32.7399 9.78948C32.7279 8.70412 32.7238 7.61073 32.7198 6.52135H29.4718C29.4597 7.60671 29.4517 8.69608 29.4437 9.78948C28.3503 9.7935 27.2649 9.80154 26.1796 9.8136V13.0656C27.2649 13.0777 28.3583 13.0857 29.4437 13.0978C29.4557 14.1832 29.4557 15.2725 29.4638 16.3579H32.7158C32.7198 15.2725 32.7279 14.1832 32.7359 13.0898C33.8293 13.0777 34.9146 13.0737 36 13.0616V9.80958C34.9187 9.80154 33.8253 9.80154 32.7399 9.78948ZM11.4348 9.80556C11.4308 11.104 11.4348 12.4064 11.4388 13.7048C13.6176 13.7771 15.8003 13.745 17.9791 13.7771C17.0184 18.613 10.4459 20.1807 6.96878 17.0212C3.39113 14.2515 3.55996 8.17752 7.27831 5.60483C9.87914 3.5306 13.5734 4.04112 16.1742 5.83798C17.1952 4.89332 18.152 3.88032 19.0725 2.83517C16.9098 1.11066 14.2567 -0.119407 11.4348 0.00922763C5.54174 -0.187744 0.127028 4.97372 0.0305517 10.8708C-0.347312 15.6906 2.82031 20.4139 7.29037 22.1183C11.7443 23.8348 17.4565 22.665 20.3026 18.6612C22.1798 16.1328 22.5858 12.8767 22.3647 9.81762C18.7187 9.78948 15.0768 9.7935 11.4348 9.80556Z" fill="#FF6363"/>
</svg>
