<svg width="20" height="27" viewBox="0 0 20 27" fill="none" xmlns="http://www.w3.org/2000/svg">
<path d="M10 0C4.72656 0 0.332031 4.25385 0.332031 9.66797C0.332031 11.7246 0.947207 13.5703 2.14264 15.293L9.26178 26.5195C9.4375 26.8007 9.71881 26.9238 10.0001 26.9238C10.2812 26.9238 10.5626 26.8007 10.7383 26.5195L17.8926 15.2578C19.0528 13.6055 19.668 11.6719 19.668 9.66797C19.668 4.34174 15.3262 0 10 0ZM10 14.0625C7.57686 14.0625 5.60547 12.0911 5.60547 9.66797C5.60547 7.24482 7.57686 5.27344 10 5.27344C12.4231 5.27344 14.3945 7.24482 14.3945 9.66797C14.3945 12.0911 12.4231 14.0625 10 14.0625Z" fill="#007932"/>
<path d="M10 0V5.27344C12.4231 5.27344 14.3945 7.24482 14.3945 9.66797C14.3945 12.0911 12.4231 14.0625 10 14.0625L10.0001 26.9238C10.2812 26.9238 10.5626 26.8007 10.7383 26.5195L17.8926 15.2578C19.0528 13.6055 19.668 11.6719 19.668 9.66797C19.668 4.34174 15.3262 0 10 0Z" fill="#007932"/>
</svg>
